<?xml version="1.0" standalone="no"?>
<!DOCTYPE svg PUBLIC "-//W3C//DTD SVG 20010904//EN"
 "http://www.w3.org/TR/2001/REC-SVG-20010904/DTD/svg10.dtd">
<svg version="1.0" xmlns="http://www.w3.org/2000/svg"
 width="312.000000pt" height="312.000000pt" viewBox="0 0 312.000000 312.000000"
 preserveAspectRatio="xMidYMid meet">
<metadata>
Created by potrace 1.14, written by Peter Selinger 2001-2017
</metadata>
<g transform="translate(0.000000,312.000000) scale(0.100000,-0.100000)"
fill="#000000" stroke="none">
<path d="M690 2645 l0 -85 98 -1 c53 -1 286 -5 518 -8 l420 -6 -225 -422 -226
-422 -205 -1 c-113 0 -269 -3 -347 -7 l-143 -6 0 -132 0 -132 261 -6 c144 -3
263 -8 266 -10 3 -4 -337 -650 -418 -793 -26 -46 -29 -61 -29 -138 l0 -86 885
0 885 0 0 80 0 80 -97 1 c-54 1 -301 5 -550 8 l-452 6 228 425 228 425 361 3
362 2 0 135 0 135 -47 1 c-27 1 -154 4 -284 8 l-237 6 229 425 229 425 0 88 0
87 -855 0 -855 0 0 -85z m1508 -99 c3 -3 -181 -353 -356 -676 l-89 -165 -144
-7 c-78 -4 -145 -6 -147 -4 -2 2 99 195 225 428 l228 423 55 6 c50 6 220 2
228 -5z m-611 -1139 c1 -2 -77 -154 -175 -338 -98 -184 -201 -376 -228 -426
l-49 -93 -144 0 c-128 0 -142 2 -137 16 7 18 379 714 429 803 l30 54 135 -7
c75 -3 137 -7 139 -9z"/>
</g>
</svg>
