<?xml version="1.0" standalone="no"?>
<!DOCTYPE svg PUBLIC "-//W3C//DTD SVG 20010904//EN"
 "http://www.w3.org/TR/2001/REC-SVG-20010904/DTD/svg10.dtd">
<svg version="1.0" xmlns="http://www.w3.org/2000/svg"
 width="512.000000pt" height="512.000000pt" viewBox="0 0 512.000000 512.000000"
 preserveAspectRatio="xMidYMid meet">
<metadata>
Created by potrace 1.14, written by Peter Selinger 2001-2017
</metadata>
<g transform="translate(0.000000,512.000000) scale(0.100000,-0.100000)"
fill="#000000" stroke="none">
<path d="M1130 4340 l0 -140 208 -1 c114 -1 498 -5 855 -8 l647 -6 -373 -695
c-345 -643 -376 -695 -403 -701 -16 -4 -273 -7 -571 -8 l-543 -1 0 -223 0
-224 432 -7 c238 -3 435 -10 439 -14 7 -7 -108 -226 -532 -1016 l-209 -389 0
-134 0 -133 1455 0 1455 0 0 135 0 135 -906 0 c-859 0 -906 1 -900 18 6 13
384 722 694 1300 l55 102 594 0 593 0 0 225 0 225 -447 1 c-247 1 -457 4 -469
7 -19 7 -14 19 76 187 54 99 224 416 379 704 l281 524 0 139 0 138 -1405 0
-1405 0 0 -140z m2398 -146 l91 -7 -54 -106 c-50 -101 -365 -691 -588 -1103
-93 -171 -105 -188 -132 -193 -16 -3 -126 -5 -242 -3 l-213 3 371 690 c204
380 375 694 380 699 21 23 211 32 387 20z m-981 -1873 l71 -6 -159 -300 c-88
-165 -257 -481 -376 -702 l-215 -403 -240 0 c-142 0 -238 4 -236 9 2 5 172
325 378 710 l375 701 165 -1 c91 -1 197 -4 237 -8z"/>
</g>
</svg>
